<?xml version="1.0" encoding="utf-8"?>
<!-- Generator: Adobe Illustrator 19.2.1, SVG Export Plug-In . SVG Version: 6.00 Build 0)  -->
<svg version="1.1" id="Layer_1" xmlns="http://www.w3.org/2000/svg" xmlns:xlink="http://www.w3.org/1999/xlink" x="0px" y="0px"
	 viewBox="0 0 24 24" style="enable-background:new 0 0 24 24;" xml:space="preserve">
<style type="text/css">
	.st0{fill:#ED1D35;}
	.st1{fill:none;}
</style>
<path class="st0" d="M16,12c1.7,0,3-1.3,3-3s-1.3-3-3-3s-3,1.3-3,3S14.3,12,16,12z M8,12c1.7,0,3-1.3,3-3S9.7,6,8,6S5,7.3,5,9
	S6.3,12,8,12z M8,14c-2.3,0-7,1.2-7,3.5V20h14v-2.5C15,15.2,10.3,14,8,14z M16,14c-0.3,0-0.6,0-1,0.1c1.2,0.8,2,2,2,3.5V20h6v-2.5
	C23,15.2,18.3,14,16,14z"/>
<path class="st1" d="M0,0h24v24H0V0z"/>
</svg>
