<?xml version="1.0" encoding="utf-8"?>
<!-- Generator: Adobe Illustrator 19.2.1, SVG Export Plug-In . SVG Version: 6.00 Build 0)  -->
<svg version="1.1" id="Layer_1" xmlns="http://www.w3.org/2000/svg" xmlns:xlink="http://www.w3.org/1999/xlink" x="0px" y="0px"
	 viewBox="0 0 24 24" style="enable-background:new 0 0 24 24;" xml:space="preserve">
<style type="text/css">
	.st0{fill:#ED1D35;}
	.st1{fill:none;}
</style>
<path class="st0" d="M12,12c0-3,2.5-5.5,5.5-5.5S23,9,23,12H12z M12,12c0,3-2.5,5.5-5.5,5.5S1,15,1,12H12z M12,12
	c-3,0-5.5-2.5-5.5-5.5S9,1,12,1V12z M12,12c3,0,5.5,2.5,5.5,5.5S15,23,12,23V12z"/>
<path class="st1" d="M0,0h24v24H0V0z"/>
</svg>
