<?xml version="1.0" encoding="utf-8"?>
<!-- Generator: Adobe Illustrator 19.2.1, SVG Export Plug-In . SVG Version: 6.00 Build 0)  -->
<svg version="1.1" id="Layer_1" xmlns="http://www.w3.org/2000/svg" xmlns:xlink="http://www.w3.org/1999/xlink" x="0px" y="0px"
	 viewBox="0 0 121 121" style="enable-background:new 0 0 121 121;" xml:space="preserve">
<style type="text/css">
	.st0{fill:#8F1929;}
</style>
<title>team-m</title>
<path class="st0" d="M86.4,66.6l-5-7.2c-0.3,0.3-0.6,0.5-0.9,0.7l4.9,7.1c0,0-2.2,4.6-8.5,4.6s-8.5-4.6-8.5-4.6l4.9-7.1
	c-0.3-0.2-0.6-0.4-0.9-0.7l-5,7.2l-0.4,0.5l0.3,0.5c0.1,0.2,2.5,5.2,9.5,5.2s9.4-5,9.5-5.2l0.3-0.6L86.4,66.6z"/>
<path class="st0" d="M77,49.2c3.2,0,5.8,2.6,5.8,5.8s-2.6,5.8-5.8,5.8s-5.8-2.6-5.8-5.8l0,0C71.2,51.8,73.8,49.2,77,49.2 M77,48.1
	c-3.8,0-6.9,3.1-6.9,6.9s3.1,6.9,6.9,6.9s6.9-3.1,6.9-6.9S80.8,48.1,77,48.1L77,48.1L77,48.1z"/>
<path class="st0" d="M109.1,66.6l-5-7.2c-0.3,0.3-0.6,0.5-0.9,0.7l4.9,7.1c0,0-2.2,4.6-8.5,4.6s-8.5-4.6-8.5-4.6l4.9-7.1
	c-0.3-0.2-0.6-0.4-0.9-0.7l-5,7.2l-0.4,0.5l0.4,0.5c0.1,0.2,2.5,5.2,9.5,5.2s9.4-5,9.5-5.2l0.3-0.6L109.1,66.6z"/>
<path class="st0" d="M99.7,49.2c3.2,0,5.8,2.6,5.8,5.8s-2.6,5.8-5.8,5.8S94,58.1,94,54.9l0,0C94,51.8,96.6,49.2,99.7,49.2
	 M99.7,48.1c-3.8,0-6.8,3.1-6.8,6.9c0,3.8,3.1,6.8,6.9,6.8c3.8,0,6.8-3.1,6.8-6.9C106.6,51.2,103.6,48.1,99.7,48.1L99.7,48.1
	L99.7,48.1L99.7,48.1z"/>
<path class="st0" d="M63.6,66.6l-5-7.2c-0.3,0.3-0.6,0.5-0.9,0.7l4.9,7.1c0,0-2.1,4.6-8.5,4.6s-8.5-4.6-8.5-4.6l4.9-7.1
	c-0.3-0.2-0.6-0.4-0.9-0.7l-5,7.2l-0.4,0.5l0.3,0.5c0.1,0.2,2.5,5.2,9.5,5.2s9.4-5,9.5-5.2L64,67L63.6,66.6z"/>
<path class="st0" d="M54.2,49.2c3.2,0,5.8,2.6,5.8,5.8s-2.6,5.8-5.8,5.8s-5.8-2.6-5.8-5.8l0,0C48.5,51.8,51.1,49.2,54.2,49.2
	 M54.2,48.1c-3.8,0-6.9,3.1-6.9,6.9s3.1,6.9,6.9,6.9s6.9-3.1,6.9-6.9S58,48.1,54.2,48.1L54.2,48.1L54.2,48.1z"/>
<path class="st0" d="M30.6,66.6l-5-7.2c-0.3,0.3-0.6,0.5-0.9,0.7l4.9,7.1c0,0-2.2,4.6-8.5,4.6s-8.5-4.6-8.5-4.6l5-7.1
	c-0.3-0.2-0.6-0.4-0.9-0.7l-5,7.2l-0.4,0.5l0.3,0.5c0.1,0.2,2.5,5.2,9.5,5.2s9.4-5,9.5-5.2L31,67L30.6,66.6z"/>
<polygon class="st0" points="39.8,60.1 38.1,60.1 38.1,58.4 37.3,58.4 37.3,60.1 35.7,60.1 35.7,60.9 37.3,60.9 37.3,62.5 
	38.1,62.5 38.1,60.9 39.8,60.9 "/>
<path class="st0" d="M21.2,49.2c3.2,0,5.8,2.6,5.8,5.8s-2.6,5.8-5.8,5.8c-3.2,0-5.7-2.6-5.7-5.8l0,0C15.5,51.8,18.1,49.2,21.2,49.2
	 M21.2,48.1c-3.8,0-6.9,3.1-6.9,6.9s3.1,6.9,6.9,6.9s6.9-3.1,6.9-6.9l0,0C28.1,51.2,25,48.1,21.2,48.1
	C21.2,48.1,21.2,48.1,21.2,48.1S21.2,48.1,21.2,48.1z"/>
</svg>
