<?xml version="1.0" encoding="utf-8"?>
<!-- Generator: Adobe Illustrator 19.2.1, SVG Export Plug-In . SVG Version: 6.00 Build 0)  -->
<svg version="1.1" id="Layer_1" xmlns="http://www.w3.org/2000/svg" xmlns:xlink="http://www.w3.org/1999/xlink" x="0px" y="0px"
	 viewBox="0 0 121 121" style="enable-background:new 0 0 121 121;" xml:space="preserve">
<style type="text/css">
	.st0{fill:#ED1A33;}
</style>
<title>team-m</title>
<g>
	<path class="st0" d="M92.8,66.5l-5-7.2c-0.3,0.3-0.6,0.5-0.9,0.7c2.4,3.4,4.9,7.1,4.9,7.1s-2.1,4.6-8.5,4.6s-8.5-4.6-8.5-4.6
		l4.9-7.1c-0.3-0.2-0.6-0.4-0.9-0.7l-5,7.2L73.3,67l0.3,0.6c0.1,0.2,2.5,5.2,9.5,5.2s9.4-5,9.5-5.2l0.3-0.6L92.8,66.5z"/>
	<path class="st0" d="M83.2,49.2c3.1,0,5.7,2.6,5.7,5.7s-2.6,5.7-5.7,5.7s-5.7-2.6-5.7-5.7l0,0C77.5,51.8,80.1,49.2,83.2,49.2
		 M83.2,48.1c-3.8,0-6.9,3.1-6.9,6.9c0,3.8,3.1,6.9,6.9,6.9s6.9-3.1,6.9-6.9l0,0C90.1,51.2,87,48.1,83.2,48.1L83.2,48.1z"/>
	<path class="st0" d="M69.9,66.5l-5-7.2c-0.3,0.3-0.6,0.5-0.9,0.7c2.4,3.4,4.9,7.1,4.9,7.1s-2.1,4.6-8.5,4.6S52,67.1,52,67.1
		l4.9-7.1c-0.3-0.2-0.6-0.4-0.9-0.7l-5,7.2L50.5,67l0.5,0.6c0.1,0.2,2.5,5.2,9.5,5.2s9.4-5,9.5-5.2l0.3-0.6L69.9,66.5z"/>
	<path class="st0" d="M60.5,49.2c3.1,0,5.7,2.6,5.7,5.7c0,3.1-2.6,5.7-5.7,5.7s-5.7-2.6-5.7-5.7c-0.1-3.1,2.4-5.6,5.4-5.7
		C60.4,49.2,60.5,49.2,60.5,49.2 M60.5,48.1c-3.8,0-6.9,3.1-6.9,6.9c0,3.8,3.1,6.9,6.9,6.9s6.9-3.1,6.9-6.9l0,0
		C67.4,51.2,64.3,48.1,60.5,48.1L60.5,48.1z"/>
	<path class="st0" d="M47.2,66.5l-5-7.2c-0.3,0.3-0.6,0.5-0.9,0.7c2.4,3.4,4.9,7.1,4.9,7.1s-2.1,4.6-8.5,4.6s-8.5-4.6-8.5-4.6L34,60
		c-0.3-0.2-0.6-0.4-0.9-0.7l-5,7.2L28,67.1l0.3,0.6c0.1,0.2,2.5,5.2,9.5,5.2s9.4-5,9.5-5.2l0.3-0.6L47.2,66.5z"/>
	<path class="st0" d="M37.8,49.2c3.1,0,5.7,2.6,5.7,5.7c0,3.1-2.6,5.7-5.7,5.7c-3.1,0-5.7-2.6-5.7-5.7S34.7,49.2,37.8,49.2
		L37.8,49.2 M37.8,48.1c-3.8,0-6.9,3.1-6.9,6.9c0,3.8,3.1,6.9,6.9,6.9s6.9-3.1,6.9-6.9l0,0C44.7,51.2,41.5,48.1,37.8,48.1L37.8,48.1
		z"/>
</g>
</svg>
