<?xml version="1.0" encoding="utf-8"?>
<!-- Generator: Adobe Illustrator 19.2.1, SVG Export Plug-In . SVG Version: 6.00 Build 0)  -->
<svg version="1.1" id="Layer_1" xmlns="http://www.w3.org/2000/svg" xmlns:xlink="http://www.w3.org/1999/xlink" x="0px" y="0px"
	 viewBox="0 0 113.4 85" style="enable-background:new 0 0 113.4 85;" xml:space="preserve">
<style type="text/css">
	.st0{fill:#ED1A33;}
</style>
<title>team-m</title>
<g>
	<path class="st0" d="M89,48.5l-5-7.2c-0.3,0.3-0.6,0.5-0.9,0.7c2.4,3.4,4.9,7.1,4.9,7.1s-2.1,4.6-8.5,4.6S71,49.1,71,49.1l4.9-7.1
		c-0.3-0.2-0.6-0.4-0.9-0.7l-5,7.2L69.5,49l0.3,0.6c0.1,0.2,2.5,5.2,9.5,5.2s9.4-5,9.5-5.2l0.3-0.6L89,48.5z"/>
	<path class="st0" d="M79.4,31.2c3.1,0,5.7,2.6,5.7,5.7s-2.6,5.7-5.7,5.7s-5.7-2.6-5.7-5.7l0,0C73.7,33.8,76.3,31.2,79.4,31.2
		 M79.4,30.1c-3.8,0-6.9,3.1-6.9,6.9c0,3.8,3.1,6.9,6.9,6.9s6.9-3.1,6.9-6.9l0,0C86.3,33.2,83.2,30.1,79.4,30.1L79.4,30.1z"/>
	<path class="st0" d="M66.1,48.5l-5-7.2c-0.3,0.3-0.6,0.5-0.9,0.7c2.4,3.4,4.9,7.1,4.9,7.1s-2.1,4.6-8.5,4.6s-8.4-4.6-8.4-4.6
		l4.9-7.1c-0.3-0.2-0.6-0.4-0.9-0.7l-5,7.2L46.7,49l0.5,0.6c0.1,0.2,2.5,5.2,9.5,5.2s9.4-5,9.5-5.2l0.3-0.6L66.1,48.5z"/>
	<path class="st0" d="M56.7,31.2c3.1,0,5.7,2.6,5.7,5.7c0,3.1-2.6,5.7-5.7,5.7S51,40,51,36.9c-0.1-3.1,2.4-5.6,5.4-5.7
		C56.6,31.2,56.7,31.2,56.7,31.2 M56.7,30.1c-3.8,0-6.9,3.1-6.9,6.9c0,3.8,3.1,6.9,6.9,6.9s6.9-3.1,6.9-6.9l0,0
		C63.6,33.2,60.5,30.1,56.7,30.1L56.7,30.1z"/>
	<path class="st0" d="M43.4,48.5l-5-7.2c-0.3,0.3-0.6,0.5-0.9,0.7c2.4,3.4,4.9,7.1,4.9,7.1s-2.1,4.6-8.5,4.6s-8.5-4.6-8.5-4.6
		l4.8-7.1c-0.3-0.2-0.6-0.4-0.9-0.7l-5,7.2l-0.1,0.6l0.3,0.6c0.1,0.2,2.5,5.2,9.5,5.2s9.4-5,9.5-5.2l0.3-0.6L43.4,48.5z"/>
	<path class="st0" d="M34,31.2c3.1,0,5.7,2.6,5.7,5.7c0,3.1-2.6,5.7-5.7,5.7c-3.1,0-5.7-2.6-5.7-5.7S30.9,31.2,34,31.2L34,31.2
		 M34,30.1c-3.8,0-6.9,3.1-6.9,6.9c0,3.8,3.1,6.9,6.9,6.9s6.9-3.1,6.9-6.9l0,0C40.9,33.2,37.7,30.1,34,30.1L34,30.1z"/>
</g>
</svg>
