<?xml version="1.0" encoding="utf-8"?>
<!-- Generator: Adobe Illustrator 19.2.1, SVG Export Plug-In . SVG Version: 6.00 Build 0)  -->
<svg version="1.1" id="Layer_1" xmlns="http://www.w3.org/2000/svg" xmlns:xlink="http://www.w3.org/1999/xlink" x="0px" y="0px"
	 viewBox="0 0 113.4 85" style="enable-background:new 0 0 113.4 85;" xml:space="preserve">
<style type="text/css">
	.st0{fill:#ED1A33;}
</style>
<title>mentor</title>
<g>
	<g>
		<g>
			<path class="st0" d="M56.7,56.7c-7,0-12.6-3-12.6-6.8V41l12.6,5.9l11.4-5.1l0.2,0.5h0.9v7.6C69.3,53.7,63.7,56.7,56.7,56.7z
				 M45.4,42.1v7.8c0,2.9,5.2,5.4,11.3,5.4S68,52.8,68,49.9v-7.6l-11.3,5L45.4,42.1z"/>
		</g>
	</g>
	<g>
		<g>
			<g>
				<path class="st0" d="M56.7,30.4l17.8,8l-17.8,8l-17.8-8L56.7,30.4 M56.7,29l-21,9.5l21,9.5l21-9.5L56.7,29L56.7,29z"/>
			</g>
		</g>
	</g>
</g>
</svg>
