<?xml version="1.0" encoding="utf-8"?>
<!-- Generator: Adobe Illustrator 19.2.1, SVG Export Plug-In . SVG Version: 6.00 Build 0)  -->
<svg version="1.1" id="Layer_1" xmlns="http://www.w3.org/2000/svg" xmlns:xlink="http://www.w3.org/1999/xlink" x="0px" y="0px"
	 viewBox="0 0 121 121" style="enable-background:new 0 0 121 121;" xml:space="preserve">
<style type="text/css">
	.st0{fill:#8F1929;}
</style>
<title>team-m</title>
<path class="st0" d="M55.6,46.6v27.8H23.9V46.6H55.6 M56.9,45.4H22.6v30.2h34.2L56.9,45.4L56.9,45.4L56.9,45.4z"/>
<rect x="28.3" y="51.4" class="st0" width="2.8" height="1.1"/>
<rect x="28.3" y="68.4" class="st0" width="2.8" height="1.1"/>
<rect x="28.3" y="54.2" class="st0" width="15.7" height="1.1"/>
<rect x="28.3" y="62.8" class="st0" width="15.7" height="1.1"/>
<rect x="28.3" y="57.1" class="st0" width="6.2" height="1.1"/>
<rect x="28.3" y="65.6" class="st0" width="6.2" height="1.1"/>
<rect x="28.3" y="59.9" class="st0" width="7.8" height="1.1"/>
<path class="st0" d="M97.1,46.6v27.8H65.3V46.6H97.1 M98.3,45.4H64.1v30.2h34.2L98.3,45.4L98.3,45.4L98.3,45.4z"/>
<rect x="69.8" y="51.4" class="st0" width="2.8" height="1.1"/>
<rect x="69.8" y="68.4" class="st0" width="2.8" height="1.1"/>
<rect x="69.8" y="54.2" class="st0" width="7.3" height="1.1"/>
<rect x="69.8" y="62.8" class="st0" width="15.7" height="1.1"/>
<rect x="69.8" y="57.1" class="st0" width="6.2" height="1.1"/>
<rect x="69.8" y="65.6" class="st0" width="6.2" height="1.1"/>
<rect x="69.8" y="59.9" class="st0" width="22.8" height="1.1"/>
</svg>
