<?xml version="1.0" encoding="utf-8"?>
<!-- Generator: Adobe Illustrator 19.2.1, SVG Export Plug-In . SVG Version: 6.00 Build 0)  -->
<svg version="1.1" id="Layer_1" xmlns="http://www.w3.org/2000/svg" xmlns:xlink="http://www.w3.org/1999/xlink" x="0px" y="0px"
	 viewBox="0 0 113.4 85" style="enable-background:new 0 0 113.4 85;" xml:space="preserve">
<style type="text/css">
	.st0{fill:#ED1A33;}
</style>
<title>team-m</title>
<path class="st0" d="M51.8,28.6v27.8H20.1V28.6H51.8 M53.1,27.4H18.8v30.2H53L53.1,27.4L53.1,27.4L53.1,27.4z"/>
<rect x="24.5" y="33.4" class="st0" width="2.8" height="1.1"/>
<rect x="24.5" y="50.4" class="st0" width="2.8" height="1.1"/>
<rect x="24.5" y="36.2" class="st0" width="15.7" height="1.1"/>
<rect x="24.5" y="44.8" class="st0" width="15.7" height="1.1"/>
<rect x="24.5" y="39.1" class="st0" width="6.2" height="1.1"/>
<rect x="24.5" y="47.6" class="st0" width="6.2" height="1.1"/>
<rect x="24.5" y="41.9" class="st0" width="7.8" height="1.1"/>
<path class="st0" d="M93.3,28.6v27.8H61.5V28.6H93.3 M94.5,27.4H60.3v30.2h34.2V27.4L94.5,27.4L94.5,27.4z"/>
<rect x="66" y="33.4" class="st0" width="2.8" height="1.1"/>
<rect x="66" y="50.4" class="st0" width="2.8" height="1.1"/>
<rect x="66" y="36.2" class="st0" width="7.3" height="1.1"/>
<rect x="66" y="44.8" class="st0" width="15.7" height="1.1"/>
<rect x="66" y="39.1" class="st0" width="6.2" height="1.1"/>
<rect x="66" y="47.6" class="st0" width="6.2" height="1.1"/>
<rect x="66" y="41.9" class="st0" width="22.8" height="1.1"/>
</svg>
