<svg id="Layer_1" data-name="Layer 1" xmlns="http://www.w3.org/2000/svg" xmlns:xlink="http://www.w3.org/1999/xlink" viewBox="0 0 79.25 28"><defs><clipPath id="clip-path" transform="translate(0)"><rect width="79.25" height="28" style="fill:none"/></clipPath></defs><title>Untitled-1</title><g style="clip-path:url(#clip-path)"><path d="M34.92,20.16V19.68a3.25,3.25,0,0,0-.33-1.73,1,1,0,0,0-.92-0.49H33V22.4h0.71q1.25,0,1.25-2.24m-3.26,7.6V16.42h2a2.34,2.34,0,0,1,1.86.76,4.24,4.24,0,0,1,.66,2.74V20q0,2.46-1.2,3.13l1.34,4.63H35l-1.26-4.34H33v4.34h-1.3Z" transform="translate(0)" style="fill:#292627"/><path d="M38.87,21.94v0.92h2.07V21.94q0-2.17-1-2.17t-1.05,2.17m2.62,5.51a2.16,2.16,0,0,1-1.6.55,2,2,0,0,1-1.65-.74,4.31,4.31,0,0,1-.61-2.66V22.17a4.32,4.32,0,0,1,.61-2.66A2.09,2.09,0,0,1,40,18.77a2,2,0,0,1,1.67.73,4.56,4.56,0,0,1,.57,2.67V23.9H38.87v0.92q0,2.17,1,2.17a0.93,0.93,0,0,0,.78-0.36,2.85,2.85,0,0,0,.39-1.33l1.09,0.18a3.12,3.12,0,0,1-.66,2" transform="translate(0)" style="fill:#292627"/><path d="M46.58,16.78A1.19,1.19,0,0,0,46,16.61q-0.75,0-.75,2.07V19h1v1h-1v7.74H44V20h-0.7V19H44V18.93a5.18,5.18,0,0,1,.49-2.66,1.54,1.54,0,0,1,1.36-.74,2.54,2.54,0,0,1,1,.19Z" transform="translate(0)" style="fill:#292627"/><path d="M49.25,27A0.89,0.89,0,0,0,50,26.64a2.22,2.22,0,0,0,.3-1.23V25a2.55,2.55,0,0,0-.3-1.33,0.85,0.85,0,0,0-.74-0.37q-0.81,0-.81,1.54v0.63q0,1.54.81,1.54m-1.59-4a1.73,1.73,0,0,1,2.62.09v-1.7q0-1.55-1-1.55a2.05,2.05,0,0,0-1.57,1l-0.44-.91a3.09,3.09,0,0,1,.95-0.76,2.47,2.47,0,0,1,1.18-.31q2.11,0,2.11,2.85v6.14H50.78l-0.26-1.05a1.79,1.79,0,0,1-.59,1A1.48,1.48,0,0,1,49,28a1.61,1.61,0,0,1-1.33-.56,3.49,3.49,0,0,1-.45-2.1V25.05a3.49,3.49,0,0,1,.45-2.1" transform="translate(0)" style="fill:#292627"/><path d="M56.9,27.39a2,2,0,0,1-1.55.61,1.9,1.9,0,0,1-1.55-.69,3.83,3.83,0,0,1-.57-2.39V22.17a4.56,4.56,0,0,1,.57-2.66,1.84,1.84,0,0,1,1.55-.74,2.11,2.11,0,0,1,1.53.53,3,3,0,0,1,.66,1.93l-1.13.31q-0.07-1.76-1-1.76a0.78,0.78,0,0,0-.71.42,4.07,4.07,0,0,0-.24,1.75V25a3.22,3.22,0,0,0,.25,1.54,0.8,0.8,0,0,0,.72.4,0.82,0.82,0,0,0,.73-0.4,3.79,3.79,0,0,0,.37-1.53l1.05,0.16a3.67,3.67,0,0,1-.7,2.18" transform="translate(0)" style="fill:#292627"/><path d="M58.37,20V19h0.86l0.44-2.15h0.75V19h1.15v1H60.41v6.09c0,0.57.16,0.86,0.47,0.86a1.09,1.09,0,0,0,.65-0.26l0.24,1a2.13,2.13,0,0,1-1.13.34q-1.46,0-1.46-2.15V20H58.37Z" transform="translate(0)" style="fill:#292627"/><path d="M66,24.83V21.94q0-2.17-1-2.17t-1.05,2.17v2.88Q63.94,27,65,27t1-2.17m1.25-2.66V24.6a4.41,4.41,0,0,1-.59,2.66,2.29,2.29,0,0,1-3.37,0,4.41,4.41,0,0,1-.59-2.66V22.17a4.41,4.41,0,0,1,.59-2.66,2.29,2.29,0,0,1,3.37,0,4.41,4.41,0,0,1,.59,2.66" transform="translate(0)" style="fill:#292627"/><path d="M71.78,18.77l0.32,0L72,20.16A1,1,0,0,0,71.57,20q-1.23,0-1.25,2.56v5.15H69.08V19h0.76L70.2,20.5q0.33-1.73,1.59-1.73" transform="translate(0)" style="fill:#292627"/></g><path d="M73.26,19H74.5v8.75H73.26V19Zm0-3.24h1.34V17.3H73.21V15.77Z" transform="translate(0)" style="fill:#292627"/><g style="clip-path:url(#clip-path)"><path d="M75.85,20V19h0.86l0.44-2.15h0.75V19H79v1H77.89v6.09q0,0.86.47,0.86A1.09,1.09,0,0,0,79,26.71l0.24,1a2.14,2.14,0,0,1-1.13.34q-1.46,0-1.46-2.15V20H75.85Z" transform="translate(0)" style="fill:#292627"/></g><polygon points="0 0 0 12.42 5.69 13.35 13.35 5.69 12.42 0 0 0" style="fill:#ec1b33"/><polygon points="15.34 0 14.4 5.69 22.07 13.35 27.76 12.42 27.76 0 15.34 0" style="fill:#ec1b33"/><polygon points="27.76 15.34 27.76 27.76 15.34 27.76 14.4 22.07 22.07 14.4 27.76 15.34" style="fill:#8f1929"/><polygon points="0 15.34 0 27.76 12.42 27.76 13.35 22.07 5.69 14.41 0 15.34" style="fill:#ec1b33"/></svg>