<?xml version="1.0" encoding="utf-8"?>
<!-- Generator: Adobe Illustrator 19.2.1, SVG Export Plug-In . SVG Version: 6.00 Build 0)  -->
<svg version="1.1" id="Layer_1" xmlns="http://www.w3.org/2000/svg" xmlns:xlink="http://www.w3.org/1999/xlink" x="0px" y="0px"
	 viewBox="0 0 113.4 85" style="enable-background:new 0 0 113.4 85;" xml:space="preserve">
<style type="text/css">
	.st0{fill:#ED1A33;}
</style>
<title>responsive</title>
<path class="st0" d="M40.3,40.9v16.9h-8.8V40.9H40.3 M41.6,39.6H30.2v19.6h11.4V39.6L41.6,39.6L41.6,39.6z"/>
<polygon class="st0" points="45.6,25.8 45.6,32.8 46.9,32.8 46.9,27.2 81.9,27.2 81.9,57.8 46.9,57.8 46.9,51 45.6,51 45.6,59.1 
	83.2,59.1 83.2,25.8 "/>
<polygon class="st0" points="35.9,32.2 35.9,40.1 37.2,40.1 37.2,33.5 62.7,33.5 62.7,50.4 41,50.4 41,51.7 64.1,51.7 64.1,32.2 "/>
</svg>
