<?xml version="1.0" encoding="utf-8"?>
<!-- Generator: Adobe Illustrator 19.2.1, SVG Export Plug-In . SVG Version: 6.00 Build 0)  -->
<svg version="1.1" id="Layer_1" xmlns="http://www.w3.org/2000/svg" xmlns:xlink="http://www.w3.org/1999/xlink" x="0px" y="0px"
	 viewBox="0 0 121 121" style="enable-background:new 0 0 121 121;" xml:space="preserve">
<style type="text/css">
	.st0{fill:#8F1929;}
</style>
<title>responsive</title>
<path class="st0" d="M44.1,58.9v16.9h-8.8V58.9H44.1 M45.4,57.6H34v19.6h11.4L45.4,57.6L45.4,57.6L45.4,57.6z"/>
<polygon class="st0" points="49.4,43.8 49.4,50.8 50.7,50.8 50.7,45.2 85.7,45.2 85.7,75.8 50.7,75.8 50.7,69 49.4,69 49.4,77.1 
	87,77.1 87,43.8 "/>
<polygon class="st0" points="39.7,50.2 39.7,58.1 41,58.1 41,51.5 66.5,51.5 66.5,68.4 44.8,68.4 44.8,69.7 67.9,69.7 67.9,50.2 "/>
</svg>
