<?xml version="1.0" encoding="utf-8"?>
<!-- Generator: Adobe Illustrator 19.2.1, SVG Export Plug-In . SVG Version: 6.00 Build 0)  -->
<svg version="1.1" id="Layer_1" xmlns="http://www.w3.org/2000/svg" xmlns:xlink="http://www.w3.org/1999/xlink" x="0px" y="0px"
	 viewBox="0 0 113.4 85" style="enable-background:new 0 0 113.4 85;" xml:space="preserve">
<style type="text/css">
	.st0{fill:#ED1A33;}
</style>
<title>ruby_on_r</title>
<g>
	<g>
		<path class="st0" d="M71,25.2l8.2,11.4L56.7,59.2L34.2,36.6l8.2-11.4L71,25.2 M71.8,23.7H41.6l-9.4,13.1l24.5,24.5l24.5-24.5
			L71.8,23.7L71.8,23.7z"/>
	</g>
</g>
<g>
	<rect x="33.6" y="36" class="st0" width="46.2" height="1.6"/>
</g>
<g>
	<polygon class="st0" points="45.1,36.2 41.6,25.3 43,24.9 45.9,33.6 56.7,25 67.5,33.7 70.8,24.3 72.2,24.7 68.3,36.1 56.7,27 	"/>
</g>
<g>
	<rect x="50.4" y="35.5" transform="matrix(0.902 -0.4317 0.4317 0.902 -15.9096 26.8143)" class="st0" width="1.5" height="25.9"/>
</g>
<g>
	<rect x="49.3" y="47.8" transform="matrix(0.4322 -0.9018 0.9018 0.4322 -8.442 83.6801)" class="st0" width="25.9" height="1.5"/>
</g>
</svg>
