<?xml version="1.0" encoding="utf-8"?>
<!-- Generator: Adobe Illustrator 19.2.1, SVG Export Plug-In . SVG Version: 6.00 Build 0)  -->
<svg version="1.1" id="Layer_1" xmlns="http://www.w3.org/2000/svg" xmlns:xlink="http://www.w3.org/1999/xlink" x="0px" y="0px"
	 viewBox="0 0 121 121" style="enable-background:new 0 0 121 121;" xml:space="preserve">
<style type="text/css">
	.st0{fill:#8F1929;}
</style>
<title>ruby_on_r</title>
<path class="st0" d="M69,44.5l5.3,7.3L59.4,66.7L44.6,51.9l5.3-7.3L69,44.5 M69.6,43.2H49.2L42.9,52l16.6,16.6L76,52L69.6,43.2
	L69.6,43.2z"/>
<rect x="39.6" y="71.6" class="st0" width="41.7" height="1.2"/>
<rect x="39.6" y="76.6" class="st0" width="41.7" height="1.2"/>
<rect x="42.7" y="72.2" class="st0" width="1" height="5"/>
<rect x="47.1" y="72.2" class="st0" width="1" height="5"/>
<rect x="51.4" y="72.2" class="st0" width="1" height="5"/>
<rect x="55.7" y="72.2" class="st0" width="1" height="5"/>
<rect x="60" y="72.2" class="st0" width="1" height="5"/>
<rect x="68.6" y="72.2" class="st0" width="1" height="5"/>
<rect x="64.3" y="72.2" class="st0" width="1" height="5"/>
<rect x="77.2" y="72.2" class="st0" width="1" height="5"/>
<rect x="72.9" y="72.2" class="st0" width="1" height="5"/>
</svg>
