<?xml version="1.0" encoding="utf-8"?>
<!-- Generator: Adobe Illustrator 19.2.1, SVG Export Plug-In . SVG Version: 6.00 Build 0)  -->
<svg version="1.1" id="Layer_1" xmlns="http://www.w3.org/2000/svg" xmlns:xlink="http://www.w3.org/1999/xlink" x="0px" y="0px"
	 viewBox="0 0 121 121" style="enable-background:new 0 0 121 121;" xml:space="preserve">
<style type="text/css">
	.st0{fill:#8F1929;}
</style>
<title>responsive</title>
<path class="st0" d="M81.3,66.5l-5-7.2c-0.3,0.3-0.6,0.5-0.9,0.7c2.4,3.4,4.9,7.1,4.9,7.1s-2.1,4.6-8.5,4.6s-8.5-4.6-8.5-4.6
	l4.9-7.1c-0.3-0.2-0.6-0.4-0.9-0.7l-5,7.2L61.9,67l0.3,0.6c0.1,0.2,2.5,5.2,9.5,5.2s9.4-5,9.5-5.2l0.3-0.6L81.3,66.5z"/>
<path class="st0" d="M71.8,49.2c3.1,0,5.7,2.6,5.7,5.7s-2.6,5.7-5.7,5.7c-3.1,0-5.7-2.6-5.7-5.7c0,0,0,0,0,0
	C66.1,51.8,68.7,49.2,71.8,49.2 M71.8,48.1c-3.8,0-6.9,3.1-6.9,6.9c0,3.8,3.1,6.9,6.9,6.9c3.8,0,6.9-3.1,6.9-6.9c0,0,0,0,0,0
	C78.7,51.2,75.6,48.1,71.8,48.1C71.8,48.1,71.8,48.1,71.8,48.1z"/>
<path class="st0" d="M104,66.5l-5-7.2c-0.3,0.3-0.6,0.5-0.9,0.7c2.4,3.4,4.9,7.1,4.9,7.1s-2.1,4.6-8.5,4.6S86,67.1,86,67.1l4.9-7.1
	c-0.3-0.2-0.6-0.4-0.9-0.7l-5,7.2L84.6,67l0.3,0.6c0.1,0.2,2.5,5.2,9.5,5.2s9.4-5,9.5-5.2l0.3-0.6L104,66.5z"/>
<path class="st0" d="M94.6,49.2c3.1,0,5.7,2.6,5.7,5.7s-2.6,5.7-5.7,5.7c-3.1,0-5.7-2.6-5.7-5.7c0,0,0,0,0,0c0-3.1,2.4-5.7,5.6-5.7
	C94.5,49.2,94.6,49.2,94.6,49.2 M94.6,48.1c-3.8,0-6.9,3.1-6.9,6.9c0,3.8,3.1,6.9,6.9,6.9c3.8,0,6.9-3.1,6.9-6.9
	C101.5,51.2,98.4,48.1,94.6,48.1L94.6,48.1z"/>
<path class="st0" d="M58.5,66.5l-5-7.2c-0.3,0.3-0.6,0.5-0.9,0.7c2.4,3.4,4.9,7.1,4.9,7.1s-2.1,4.6-8.5,4.6s-8.5-4.6-8.5-4.6
	l4.9-7.1c-0.3-0.2-0.6-0.4-0.9-0.7l-5,7.2L39.1,67l0.5,0.6c0.1,0.2,2.5,5.2,9.5,5.2s9.4-5,9.5-5.2l0.3-0.6L58.5,66.5z"/>
<path class="st0" d="M49.1,49.2c3.1,0,5.7,2.6,5.7,5.7c0,3.1-2.6,5.7-5.7,5.7s-5.7-2.6-5.7-5.7c-0.1-3.1,2.4-5.6,5.4-5.7
	C48.9,49.2,49,49.2,49.1,49.2 M49.1,48.1c-3.8,0-6.9,3.1-6.9,6.9c0,3.8,3.1,6.9,6.9,6.9c3.8,0,6.9-3.1,6.9-6.9v0
	C56,51.2,52.9,48.1,49.1,48.1C49.1,48.1,49.1,48.1,49.1,48.1z"/>
<path class="st0" d="M35.7,66.5l-5-7.2c-0.3,0.3-0.6,0.5-0.9,0.7c2.4,3.4,4.9,7.1,4.9,7.1s-2.1,4.6-8.5,4.6s-8.5-4.6-8.5-4.6
	l4.9-7.1c-0.3-0.2-0.6-0.4-0.9-0.7l-5,7.2l-0.1,0.6l0.3,0.6c0.1,0.2,2.5,5.2,9.5,5.2s9.4-5,9.5-5.2l0.3-0.6L35.7,66.5z"/>
<path class="st0" d="M26.3,49.2c3.1,0,5.7,2.6,5.7,5.7c0,3.1-2.6,5.7-5.7,5.7s-5.7-2.6-5.7-5.7S23.2,49.2,26.3,49.2L26.3,49.2
	 M26.3,48.1c-3.8,0-6.9,3.1-6.9,6.9c0,3.8,3.1,6.9,6.9,6.9s6.9-3.1,6.9-6.9v0C33.2,51.2,30.1,48.1,26.3,48.1
	C26.3,48.1,26.3,48.1,26.3,48.1z"/>
</svg>
