<?xml version="1.0" encoding="utf-8"?>
<!-- Generator: Adobe Illustrator 19.2.1, SVG Export Plug-In . SVG Version: 6.00 Build 0)  -->
<svg version="1.1" id="Layer_1" xmlns="http://www.w3.org/2000/svg" xmlns:xlink="http://www.w3.org/1999/xlink" x="0px" y="0px"
	 viewBox="0 0 121 121" style="enable-background:new 0 0 121 121;" xml:space="preserve">
<style type="text/css">
	.st0{fill:#8F1929;}
</style>
<title>responsive</title>
<g>
	<g>
		<path class="st0" d="M57.9,59.8c0.2,0.1,0.4,0.1,0.6,0.2C58.2,59.9,58.1,59.8,57.9,59.8z"/>
		<path class="st0" d="M56.9,59.4c0.2,0.1,0.5,0.2,0.8,0.3C57.4,59.6,57.2,59.5,56.9,59.4z"/>
		<path class="st0" d="M56.2,59.1c0.1,0.1,0.2,0.1,0.4,0.2C56.4,59.2,56.3,59.1,56.2,59.1z"/>
		<path class="st0" d="M59.6,60.1c0.3,0,0.6,0,0.9,0C60.2,60.2,59.9,60.1,59.6,60.1z"/>
		<path class="st0" d="M61.3,60.1c-0.3,0-0.6,0-0.9,0l0,0C60.8,60.2,61.1,60.1,61.3,60.1z"/>
		<path class="st0" d="M64.5,59.2c0.1-0.1,0.2-0.1,0.4-0.2C64.7,59.1,64.6,59.2,64.5,59.2z"/>
		<path class="st0" d="M58.8,60c0.2,0,0.4,0.1,0.6,0.1C59.2,60,59,60,58.8,60z"/>
		<path class="st0" d="M63.3,59.7c0.3-0.1,0.5-0.2,0.8-0.3C63.8,59.5,63.6,59.6,63.3,59.7z"/>
		<path class="st0" d="M65.5,58.7c-0.1,0.1-0.2,0.1-0.3,0.2C65.3,58.9,65.4,58.8,65.5,58.7z"/>
		<path class="st0" d="M75.6,70.2l-8.6-12.4l-0.1-0.1c-0.3,0.3-0.7,0.6-1,0.9l0,0l8.6,12.4c0,0-3.5,7.6-14.1,7.6
			c-10.5,0-14.1-7.6-14.1-7.6L55,58.5l0,0c-0.4-0.3-0.7-0.6-1-0.9l-0.1,0.1l-8.6,12.4l-0.5,0.7l0.3,0.7c0.2,0.4,4,8.4,15.2,8.4
			s15.1-8,15.2-8.4l0.3-0.7L75.6,70.2z"/>
		<path class="st0" d="M55.5,58.7c0.1,0.1,0.2,0.1,0.3,0.2C55.6,58.9,55.5,58.8,55.5,58.7z"/>
		<path class="st0" d="M62.6,59.9c0.2,0,0.4-0.1,0.6-0.2C62.9,59.8,62.8,59.9,62.6,59.9z"/>
		<path class="st0" d="M61.6,60.1c0.2,0,0.4-0.1,0.6-0.1C62,60,61.8,60,61.6,60.1z"/>
	</g>
	<g>
		<g>
			<path class="st0" d="M60.5,41.2c5.2,0,9.5,4.3,9.5,9.5s-4.3,9.5-9.5,9.5S51,55.9,51,50.7C51,45.4,55.3,41.2,60.5,41.2 M60.5,39.9
				c-6,0-10.8,4.8-10.8,10.8s4.8,10.8,10.8,10.8s10.8-4.8,10.8-10.8S66.5,39.9,60.5,39.9L60.5,39.9z"/>
		</g>
	</g>
</g>
</svg>
