<?xml version="1.0" encoding="utf-8"?>
<!-- Generator: Adobe Illustrator 19.2.1, SVG Export Plug-In . SVG Version: 6.00 Build 0)  -->
<svg version="1.1" id="Layer_1" xmlns="http://www.w3.org/2000/svg" xmlns:xlink="http://www.w3.org/1999/xlink" x="0px" y="0px"
	 viewBox="0 0 113.4 85" style="enable-background:new 0 0 113.4 85;" xml:space="preserve">
<style type="text/css">
	.st0{fill:#ED1A33;}
</style>
<title>responsive</title>
<g>
	<g>
		<path class="st0" d="M54.1,41.8c0.2,0.1,0.4,0.1,0.6,0.2C54.4,41.9,54.3,41.8,54.1,41.8z"/>
		<path class="st0" d="M53.1,41.4c0.2,0.1,0.5,0.2,0.8,0.3C53.6,41.6,53.4,41.5,53.1,41.4z"/>
		<path class="st0" d="M52.4,41.1c0.1,0.1,0.2,0.1,0.4,0.2C52.6,41.2,52.5,41.1,52.4,41.1z"/>
		<path class="st0" d="M55.8,42.1c0.3,0,0.6,0,0.9,0C56.4,42.2,56.1,42.1,55.8,42.1z"/>
		<path class="st0" d="M57.5,42.1c-0.3,0-0.6,0-0.9,0l0,0C57,42.2,57.3,42.1,57.5,42.1z"/>
		<path class="st0" d="M60.7,41.2c0.1-0.1,0.2-0.1,0.4-0.2C60.9,41.1,60.8,41.2,60.7,41.2z"/>
		<path class="st0" d="M55,42c0.2,0,0.4,0.1,0.6,0.1C55.4,42,55.2,42,55,42z"/>
		<path class="st0" d="M59.5,41.7c0.3-0.1,0.5-0.2,0.8-0.3C60,41.5,59.8,41.6,59.5,41.7z"/>
		<path class="st0" d="M61.7,40.7c-0.1,0.1-0.2,0.1-0.3,0.2C61.5,40.9,61.6,40.8,61.7,40.7z"/>
		<path class="st0" d="M71.8,52.2l-8.6-12.4l-0.1-0.1c-0.3,0.3-0.7,0.6-1,0.9l0,0L70.7,53c0,0-3.5,7.6-14.1,7.6
			c-10.5,0-14.1-7.6-14.1-7.6l8.7-12.5l0,0c-0.4-0.3-0.7-0.6-1-0.9l-0.1,0.1l-8.6,12.4L41,52.8l0.3,0.7c0.2,0.4,4,8.4,15.2,8.4
			s15.1-8,15.2-8.4l0.3-0.7L71.8,52.2z"/>
		<path class="st0" d="M51.7,40.7c0.1,0.1,0.2,0.1,0.3,0.2C51.8,40.9,51.7,40.8,51.7,40.7z"/>
		<path class="st0" d="M58.8,41.9c0.2,0,0.4-0.1,0.6-0.2C59.1,41.8,59,41.9,58.8,41.9z"/>
		<path class="st0" d="M57.8,42.1c0.2,0,0.4-0.1,0.6-0.1C58.2,42,58,42,57.8,42.1z"/>
	</g>
	<g>
		<g>
			<path class="st0" d="M56.7,23.2c5.2,0,9.5,4.3,9.5,9.5s-4.3,9.5-9.5,9.5s-9.5-4.3-9.5-9.5C47.2,27.4,51.5,23.2,56.7,23.2
				 M56.7,21.9c-6,0-10.8,4.8-10.8,10.8s4.8,10.8,10.8,10.8s10.8-4.8,10.8-10.8S62.7,21.9,56.7,21.9L56.7,21.9z"/>
		</g>
	</g>
</g>
</svg>
