<?xml version="1.0" encoding="utf-8"?>
<!-- Generator: Adobe Illustrator 19.2.1, SVG Export Plug-In . SVG Version: 6.00 Build 0)  -->
<svg version="1.1" id="Layer_1" xmlns="http://www.w3.org/2000/svg" xmlns:xlink="http://www.w3.org/1999/xlink" x="0px" y="0px"
	 viewBox="0 0 121 121" style="enable-background:new 0 0 121 121;" xml:space="preserve">
<style type="text/css">
	.st0{fill:#8F1929;}
</style>
<title>team-m</title>
<path class="st0" d="M90.3,47.2v26.7H30.7V47.2H90.3 M91.5,45.9h-62V75h62V45.9L91.5,45.9L91.5,45.9z"/>
<rect x="51.8" y="56.7" class="st0" width="2.4" height="1.1"/>
<rect x="40.3" y="64.6" class="st0" width="10.2" height="1.1"/>
<rect x="42.4" y="67.4" class="st0" width="6" height="1.1"/>
<rect x="55.4" y="64.6" class="st0" width="10.2" height="1.1"/>
<rect x="57.5" y="67.4" class="st0" width="6" height="1.1"/>
<rect x="70.4" y="64.6" class="st0" width="10.2" height="1.1"/>
<rect x="72.6" y="67.4" class="st0" width="6" height="1.1"/>
<rect x="66.8" y="56.7" class="st0" width="2.4" height="1.1"/>
<path class="st0" d="M45.4,53.7c2,0,3.6,1.6,3.6,3.6s-1.6,3.6-3.6,3.6s-3.6-1.6-3.6-3.6l0,0C41.8,55.3,43.4,53.7,45.4,53.7
	 M45.4,52.5c-2.7,0-4.8,2.2-4.8,4.8s2.2,4.8,4.8,4.8s4.8-2.2,4.8-4.8l0,0C50.3,54.6,48.1,52.5,45.4,52.5L45.4,52.5L45.4,52.5z"/>
<path class="st0" d="M60.5,53.7c2,0,3.6,1.6,3.6,3.6s-1.6,3.6-3.6,3.6s-3.6-1.6-3.6-3.6l0,0C56.9,55.3,58.5,53.7,60.5,53.7
	 M60.5,52.5c-2.7,0-4.8,2.2-4.8,4.8c0,2.7,2.2,4.8,4.8,4.8c2.7,0,4.8-2.2,4.8-4.8l0,0C65.3,54.6,63.2,52.5,60.5,52.5L60.5,52.5
	L60.5,52.5z"/>
<path class="st0" d="M75.6,53.7c2,0,3.6,1.6,3.6,3.6s-1.6,3.6-3.6,3.6S72,59.3,72,57.3l0,0C72,55.3,73.6,53.7,75.6,53.7 M75.6,52.5
	c-2.7,0-4.8,2.2-4.8,4.8c0,2.7,2.2,4.8,4.8,4.8c2.7,0,4.8-2.2,4.8-4.8l0,0C80.4,54.6,78.3,52.5,75.6,52.5L75.6,52.5L75.6,52.5z"/>
</svg>
