<?xml version="1.0" encoding="utf-8"?>
<!-- Generator: Adobe Illustrator 19.2.1, SVG Export Plug-In . SVG Version: 6.00 Build 0)  -->
<svg version="1.1" id="Layer_1" xmlns="http://www.w3.org/2000/svg" xmlns:xlink="http://www.w3.org/1999/xlink" x="0px" y="0px"
	 viewBox="0 0 121 121" style="enable-background:new 0 0 121 121;" xml:space="preserve">
<style type="text/css">
	.st0{fill:#8F1929;}
</style>
<title>team-m</title>
<g>
	<path class="st0" d="M85.4,44.4v32.3H35.6V44.4H85.4 M86.7,43.1H34.3v34.8h52.4V43.1L86.7,43.1z"/>
	<g>
		<g>
			<path class="st0" d="M48,52.8v19.5h-6.8V52.8H48 M49.2,51.5h-9.4v22h9.4V51.5L49.2,51.5z"/>
		</g>
	</g>
	<rect x="39.9" y="47.1" class="st0" width="9.4" height="1.1"/>
	<rect x="73.7" y="47.1" class="st0" width="9.4" height="1.1"/>
	<rect x="51.1" y="47.1" class="st0" width="20.7" height="1.1"/>
	<rect x="51.1" y="63.9" class="st0" width="20.7" height="1.1"/>
	<rect x="51.1" y="66.7" class="st0" width="20.7" height="1.1"/>
	<rect x="51.1" y="72.4" class="st0" width="20.7" height="1.1"/>
	<rect x="51.1" y="69.6" class="st0" width="20.7" height="1.1"/>
	<g>
		<path class="st0" d="M70.5,52.8v7.4H52.3v-7.4H70.5 M71.8,51.5H51.1v9.9h20.7V51.5L71.8,51.5z"/>
	</g>
	<g>
		<path class="st0" d="M81.8,52.8v4H75v-4H81.8 M83.1,51.5h-9.4V58h9.4V51.5L83.1,51.5z"/>
	</g>
</g>
</svg>
