<?xml version="1.0" encoding="utf-8"?>
<!-- Generator: Adobe Illustrator 19.2.1, SVG Export Plug-In . SVG Version: 6.00 Build 0)  -->
<svg version="1.1" id="Layer_1" xmlns="http://www.w3.org/2000/svg" xmlns:xlink="http://www.w3.org/1999/xlink" x="0px" y="0px"
	 viewBox="0 0 113.4 85" style="enable-background:new 0 0 113.4 85;" xml:space="preserve">
<style type="text/css">
	.st0{fill:#ED1A33;}
</style>
<title>team-m</title>
<g>
	<path class="st0" d="M81.6,26.4v32.3H31.8V26.4H81.6 M82.9,25.1H30.5v34.8h52.4V25.1L82.9,25.1z"/>
	<g>
		<g>
			<path class="st0" d="M44.2,34.8v19.5h-6.8V34.8H44.2 M45.4,33.5H36v22h9.4L45.4,33.5L45.4,33.5z"/>
		</g>
	</g>
	<rect x="36.1" y="29.1" class="st0" width="9.4" height="1.1"/>
	<rect x="69.9" y="29.1" class="st0" width="9.4" height="1.1"/>
	<rect x="47.3" y="29.1" class="st0" width="20.7" height="1.1"/>
	<rect x="47.3" y="45.9" class="st0" width="20.7" height="1.1"/>
	<rect x="47.3" y="48.7" class="st0" width="20.7" height="1.1"/>
	<rect x="47.3" y="54.4" class="st0" width="20.7" height="1.1"/>
	<rect x="47.3" y="51.6" class="st0" width="20.7" height="1.1"/>
	<g>
		<path class="st0" d="M66.7,34.8v7.4H48.5v-7.4H66.7 M68,33.5H47.3v9.9H68V33.5L68,33.5z"/>
	</g>
	<g>
		<path class="st0" d="M78,34.8v4h-6.8v-4H78 M79.3,33.5h-9.4V40h9.4V33.5L79.3,33.5z"/>
	</g>
</g>
</svg>
